<?xml version="1.0" encoding="UTF-8" standalone="no"?><!DOCTYPE svg PUBLIC "-//W3C//DTD SVG 1.1//EN" "http://www.w3.org/Graphics/SVG/1.1/DTD/svg11.dtd"><svg width="100%" height="100%" viewBox="0 0 58 64" version="1.1" xmlns="http://www.w3.org/2000/svg" xmlns:xlink="http://www.w3.org/1999/xlink" xml:space="preserve" xmlns:serif="http://www.serif.com/" style="fill-rule:evenodd;clip-rule:evenodd;stroke-linejoin:round;stroke-miterlimit:2;"><g><path d="M28.8,9.9c-15.9,0 -28.8,-2.25 -28.8,-4.95l0,53.55c0,2.775 12.9,4.95 28.8,4.95c15.9,0 28.8,-2.25 28.8,-4.95l0,-53.55c0,2.775 -12.9,4.95 -28.8,4.95Z" style="fill:#f80000;fill-rule:nonzero;"/><g><path d="M0,4.95l0,53.55c0,2.775 12.9,4.95 28.8,4.95l0,-53.55c-15.9,0 -28.8,-2.175 -28.8,-4.95Z" style="fill:#d90000;fill-rule:nonzero;"/><path d="M53.55,7.5l0,53.55c2.55,-0.75 4.05,-1.575 4.05,-2.55l0,-53.55c0,0.975 -1.5,1.8 -4.05,2.55Z" style="fill:#d90000;fill-rule:nonzero;"/></g><ellipse cx="28.8" cy="4.95" rx="28.8" ry="4.95" style="fill:#ba0000;"/><path d="M0,38.625c0,2.775 12.9,4.95 28.8,4.95c15.9,0 28.8,-2.25 28.8,-4.95l0,4.05c0,2.775 -12.9,4.95 -28.8,4.95c-15.9,0 -28.8,-2.25 -28.8,-4.95l0,-4.05Zm0,-13.8c0,2.775 12.9,4.95 28.8,4.95c15.9,0 28.8,-2.25 28.8,-4.95l0,-4.05c0,2.775 -12.9,4.95 -28.8,4.95c-15.9,0 -28.8,-2.25 -28.8,-4.95l0,4.05Z" style="fill:#9b0000;fill-rule:nonzero;"/></g><g id="Layer1"></g><g id="g16337"><path id="path16197" d="M25.297,36.253l3.389,0l-1.792,-3.009l-3.289,5.441l-1.497,0l4.001,-6.536c0.174,-0.264 0.464,-0.424 0.785,-0.424c0.311,0 0.601,0.154 0.77,0.413l4.016,6.547l-1.497,0l-0.706,-1.216l-3.431,0l-0.749,-1.216Zm15.549,1.216l0,-5.678l-1.27,0l0,6.234c0,0.17 0.063,0.335 0.184,0.462c0.122,0.127 0.285,0.198 0.464,0.198l5.793,0l0.748,-1.216l-5.919,0Zm-21.015,-1.018c1.234,0 2.235,-1.04 2.235,-2.327c0,-1.288 -1.001,-2.333 -2.235,-2.333l-5.557,0l0,6.894l1.27,0l0,-5.678l4.203,0c0.59,0 1.065,0.501 1.065,1.117c0,0.616 -0.475,1.117 -1.065,1.117l-3.581,-0.006l3.792,3.45l1.845,0l-2.551,-2.234l0.579,0Zm-13.373,2.234c-1.823,0 -3.303,-1.54 -3.303,-3.444c0,-1.904 1.48,-3.45 3.303,-3.45l3.839,0c1.823,0 3.302,1.546 3.302,3.45c0,1.904 -1.479,3.444 -3.302,3.444l-3.839,0Zm3.753,-1.216c1.181,0 2.138,-0.996 2.138,-2.228c0,-1.233 -0.957,-2.234 -2.138,-2.234l-3.668,0c-1.181,0 -2.138,1.001 -2.138,2.234c0,1.232 0.957,2.228 2.138,2.228l3.668,0Zm24.12,1.216c-1.823,0 -3.304,-1.54 -3.304,-3.444c0,-1.904 1.481,-3.45 3.304,-3.45l4.56,0l-0.743,1.216l-3.732,0c-1.181,0 -2.14,1.001 -2.14,2.234c0,1.232 0.959,2.228 2.14,2.228l4.58,0l-0.748,1.216l-3.917,0Zm15.534,-1.216c-0.976,0 -1.803,-0.682 -2.056,-1.623l5.429,0l0.748,-1.216l-6.177,0c0.253,-0.935 1.08,-1.623 2.056,-1.623l3.726,0l0.754,-1.216l-4.565,0c-1.823,0 -3.305,1.546 -3.305,3.45c0,1.904 1.482,3.444 3.305,3.444l3.916,0l0.749,-1.216l-4.58,0" style="fill:#fff;fill-rule:nonzero;"/><path id="path16199" d="M55.182,32.523c0,-0.336 0.27,-0.605 0.605,-0.605c0.341,0 0.611,0.269 0.611,0.605c0,0.341 -0.27,0.611 -0.611,0.611c-0.335,0 -0.605,-0.27 -0.605,-0.611Zm0.605,0.781c0.429,0 0.776,-0.347 0.776,-0.776c0,-0.429 -0.347,-0.775 -0.776,-0.775c-0.423,0 -0.77,0.346 -0.77,0.775c0,0.429 0.347,0.776 0.77,0.776Zm-0.071,-1.238c0.121,0 0.17,0.006 0.225,0.028c0.154,0.049 0.171,0.187 0.171,0.242c0,0.011 0,0.038 -0.011,0.071c-0.006,0.033 -0.028,0.099 -0.105,0.149c-0.011,0.005 -0.016,0.011 -0.038,0.022l0.198,0.357l-0.193,0l-0.176,-0.33l-0.121,0l0,0.33l-0.17,0l0,-0.869l0.22,0Zm0.06,0.396c0.055,-0.005 0.11,-0.005 0.143,-0.055c0.017,-0.022 0.022,-0.044 0.022,-0.077c0,-0.044 -0.027,-0.082 -0.066,-0.104c-0.038,-0.017 -0.077,-0.017 -0.159,-0.017l-0.05,0l0,0.253l0.11,0" style="fill:#fff;fill-rule:nonzero;"/></g></svg>